<?xml version="1.0" encoding="UTF-8" standalone="no"?>
<!-- Created with Inkscape (http://www.inkscape.org/) -->

<svg
   xmlns:dc="http://purl.org/dc/elements/1.1/"
   xmlns:cc="http://creativecommons.org/ns#"
   xmlns:rdf="http://www.w3.org/1999/02/22-rdf-syntax-ns#"
   xmlns:svg="http://www.w3.org/2000/svg"
   xmlns="http://www.w3.org/2000/svg"
   xmlns:sodipodi="http://sodipodi.sourceforge.net/DTD/sodipodi-0.dtd"
   xmlns:inkscape="http://www.inkscape.org/namespaces/inkscape"
   width="210mm"
   height="297mm"
   viewBox="0 0 744.09448819 1052.3622047"
   id="svg5227"
   version="1.1"
   inkscape:version="0.91 r13725"
   sodipodi:docname="gehaeuse.svg">
  <defs
     id="defs5229" />
  <sodipodi:namedview
     id="base"
     pagecolor="#ffffff"
     bordercolor="#666666"
     borderopacity="1.0"
     inkscape:pageopacity="0.0"
     inkscape:pageshadow="2"
     inkscape:zoom="0.7"
     inkscape:cx="40.879133"
     inkscape:cy="575.00297"
     inkscape:document-units="px"
     inkscape:current-layer="layer1"
     showgrid="false"
     inkscape:snap-bbox="true"
     inkscape:bbox-paths="true"
     inkscape:bbox-nodes="true"
     inkscape:window-width="1920"
     inkscape:window-height="1147"
     inkscape:window-x="0"
     inkscape:window-y="31"
     inkscape:window-maximized="1" />
  <metadata
     id="metadata5232">
    <rdf:RDF>
      <cc:Work
         rdf:about="">
        <dc:format>image/svg+xml</dc:format>
        <dc:type
           rdf:resource="http://purl.org/dc/dcmitype/StillImage" />
        <dc:title />
      </cc:Work>
    </rdf:RDF>
  </metadata>
  <g
     inkscape:label="Layer 1"
     inkscape:groupmode="layer"
     id="layer1">
    <path
       inkscape:connector-curvature="0"
       style="opacity:1;fill:none;stroke:#0000ff;stroke-width:0.88582677;stroke-miterlimit:4;stroke-dasharray:none;stroke-opacity:1"
       d="m 695.12086,214.27974 0,-70.86725 -17.71675,0 0,-53.148385 17.71675,0 0,-53.150377 -88.58399,0 0,-17.7168 -70.86521,0 0,17.7168 -88.58399,0 0,53.150377 17.71679,0 0,53.150385 -17.71679,0 0,70.86525 z"
       id="path5201-7"
       sodipodi:nodetypes="ccccccccccccccccc" />
    <path
       inkscape:connector-curvature="0"
       style="opacity:1;fill:none;stroke:#0000ff;stroke-width:0.88582677;stroke-miterlimit:4;stroke-dasharray:none;stroke-opacity:1"
       d="m 606.53687,409.16266 0,-17.71678 88.58399,0 0,-53.15039 -17.7168,0 0,-53.15036 17.7168,0 0,-70.86538 -248.0332,0 0,70.86725 17.71679,0 0,53.14849 -17.71679,0 0,53.15039 88.58398,0 0,17.71678 70.86523,0 z"
       id="path5201" />
    <circle
       style="opacity:1;fill:none;stroke:#0000ff;stroke-width:0.88582677;stroke-miterlimit:4;stroke-dasharray:none;stroke-opacity:1"
       id="path4706-6-4-6"
       cx="-606.53717"
       cy="-255.02919"
       transform="scale(-1,-1)"
       r="5.3149605" />
    <circle
       style="opacity:1;fill:none;stroke:#0000ff;stroke-width:0.88582677;stroke-miterlimit:4;stroke-dasharray:none;stroke-opacity:1"
       id="path4706-7-4-0-9"
       cx="-535.67181"
       cy="-255.02965"
       transform="scale(-1,-1)"
       r="5.3149605" />
    <circle
       style="opacity:1;fill:none;stroke:#0000ff;stroke-width:0.88582677;stroke-miterlimit:4;stroke-dasharray:none;stroke-opacity:1"
       id="path4706-5-1-8-1"
       cx="-606.53717"
       cy="-308.17862"
       transform="scale(-1,-1)"
       r="5.3149605" />
    <circle
       style="opacity:1;fill:none;stroke:#0000ff;stroke-width:0.88582677;stroke-miterlimit:4;stroke-dasharray:none;stroke-opacity:1"
       id="path4706-7-3-0-8-4"
       cx="-535.67181"
       cy="-308.17914"
       transform="scale(-1,-1)"
       r="5.3149605" />
    <circle
       style="opacity:1;fill:none;stroke:#0000ff;stroke-width:0.88582677;stroke-miterlimit:4;stroke-dasharray:none;stroke-opacity:1"
       id="path4706-5-5-7-3-5"
       cx="-606.53717"
       cy="-361.32849"
       transform="scale(-1,-1)"
       r="5.3149605" />
    <circle
       style="opacity:1;fill:none;stroke:#0000ff;stroke-width:0.88582677;stroke-miterlimit:4;stroke-dasharray:none;stroke-opacity:1"
       id="path4706-7-3-2-4-0-3"
       cx="-535.67181"
       cy="-361.32886"
       transform="scale(-1,-1)"
       r="5.3149605" />
    <rect
       style="opacity:1;fill:none;stroke:#0000ff;stroke-width:0.88582677;stroke-miterlimit:4;stroke-dasharray:none;stroke-opacity:1"
       id="rect4435-3"
       width="31.889765"
       height="38.976379"
       x="-507.32452"
       y="-288.69055"
       transform="scale(-1,-1)" />
    <circle
       style="opacity:1;fill:none;stroke:#0000ff;stroke-width:0.88582677;stroke-miterlimit:4;stroke-dasharray:none;stroke-opacity:1"
       id="path4706-5-1-2-7"
       cx="-571.10406"
       cy="-308.17755"
       transform="scale(-1,-1)"
       r="5.3149605" />
    <path
       style="opacity:1;fill:none;fill-opacity:1;fill-rule:nonzero;stroke:#0000ff;stroke-width:0.88582677;stroke-linecap:butt;stroke-linejoin:miter;stroke-miterlimit:4;stroke-dasharray:none;stroke-opacity:1"
       d="m 16.325235,91.85031 17.71675,0 0,-53.148373 124.015735,-0.002 0,-17.71675 106.29874,0 0,17.71675 124.01574,0 0,53.150373 17.71675,0 0,53.1505 -17.71675,0 0,70.8652 -354.330215,0 0,-70.8652 -17.71675,0 z"
       id="rect6275-7"
       inkscape:connector-curvature="0"
       sodipodi:nodetypes="ccccccccccccccccc" />
    <path
       style="opacity:1;fill:none;fill-opacity:1;fill-rule:nonzero;stroke:#0000ff;stroke-width:0.88582677;stroke-linecap:butt;stroke-linejoin:miter;stroke-miterlimit:4;stroke-dasharray:none;stroke-opacity:1"
       d="m 16.325239,339.88171 17.71675,0 0,53.14837 124.015731,0.002 0,17.71675 106.29874,0 0,-17.71675 124.01574,0 0,-53.15037 17.71675,0 0,-53.1505 -17.71675,0 0,-70.8652 -354.330211,0 0,70.8652 -17.71675,0 z"
       id="rect6275-7-8"
       inkscape:connector-curvature="0"
       sodipodi:nodetypes="ccccccccccccccccc" />
    <path
       style="opacity:1;fill:none;fill-opacity:1;fill-rule:nonzero;stroke:#0000ff;stroke-width:0.88582677;stroke-linecap:butt;stroke-linejoin:miter;stroke-miterlimit:4;stroke-dasharray:none;stroke-opacity:1"
       d="m 61.576096,478.90897 0,141.73242 17.7168,0 0,106.2988 -17.7168,0 0,141.7324 88.580084,0 0,-17.7167 -26.57226,0 0,-17.7168 124.01563,0 0,17.7168 -26.57617,0 0,17.7167 88.58398,0 0,-141.7324 -17.7168,0 0,-106.2988 17.7168,0 0,-141.73242 -88.58203,0 0,17.71678 -70.8672,0 0,-17.71678 -88.582034,0 z"
       id="rect6219-2"
       inkscape:connector-curvature="0" />
    <rect
       style="opacity:1;fill:none;stroke:#0000ff;stroke-width:0.88582677;stroke-miterlimit:4;stroke-dasharray:none;stroke-opacity:1"
       id="rect4435-3-5"
       width="28.346457"
       height="141.73228"
       x="-468.23398"
       y="-650.37122"
       transform="scale(-1,-1)" />
    <rect
       style="opacity:1;fill:none;stroke:#0000ff;stroke-width:0.88582677;stroke-miterlimit:4;stroke-dasharray:none;stroke-opacity:1"
       id="rect4435-3-5-4"
       width="28.346457"
       height="141.73228"
       x="-439.88751"
       y="-650.37122"
       transform="scale(-1,-1)" />
  </g>
</svg>
